# xmcd
#
# Track frame offsets: 
#        150
#        26640
#        44690
#        63890
#        82823
#        103515
#        126270
#        147540
#        168230
#        187283
#        206443
#        226643
#        248830
#        274915
#        297985
#
# Disc length: 4282 seconds
#
# Revision: 10
# Processed by: cddbd v1.5.2PL0 Copyright (c) Steve Scherf et al.
# Submitted via: ExactAudioCopy v0.99pb4
#
DISCID=da10b80f
DTITLE=Aretha Franklin - Greatest Hits (1980-1994)
DYEAR=1994
DGENRE=R&B
TTITLE0=Freeway of Love
TTITLE1=I Knew You Were Waiting (For Me)
TTITLE2=Jump To It
TTITLE3=Willing To Forgive
TTITLE4=Doctor's Orders
TTITLE5=United Together
TTITLE6=Who's Zoomin' Who
TTITLE7=A Deeper Love
TTITLE8=Honey
TTITLE9=Get It Right
TTITLE10=Another Night
TTITLE11=Ever Changing Times
TTITLE12=Jimmy Lee
TTITLE13=(You Make Me Feel Like) A Natural Woman
TTITLE14=I Dreamed A Dream
EXTD=This compilation spans 1980 to 1994.  The CD was released in 1994
EXTD=
EXTT0=
EXTT1=
EXTT2=
EXTT3=
EXTT4=
EXTT5=
EXTT6=
EXTT7=
EXTT8=
EXTT9=
EXTT10=
EXTT11=
EXTT12=
EXTT13=
EXTT14=
PLAYORDER=
